<?xml version="1.0" encoding="UTF-8"?>
<svg width="234px" height="234px" viewBox="0 0 234 234" version="1.1"
    xmlns="http://www.w3.org/2000/svg" xmlns:xlink="http://www.w3.org/1999/xlink">
    <title>编组 28</title>
    <g id="页面-1" stroke="none" stroke-width="1" fill="none" fill-rule="evenodd">
        <g id="编组-28">
            <circle id="椭圆形备份" fill="#1F35A8" cx="117" cy="117" r="117"></circle>
            <path class='polygon'
                d="M117,37.5829038 L184.728185,76.6084392 C184.805535,76.6530974 184.868035,76.7166924 184.911197,76.7914519 C184.95436,76.8662114 184.978185,76.9521355 184.978185,77.0414519 L184.978185,154.958548 C184.978185,155.047865 184.95436,155.133789 184.911197,155.208548 C184.868035,155.283308 184.805535,155.346903 184.728185,155.391561 L117.25,194.350109 C117.095299,194.439425 116.904701,194.439425 116.75,194.350109 L49.2718153,155.391561 C49.194465,155.346903 49.131965,155.283308 49.0888026,155.208548 C49.0456401,155.133789 49.0218153,155.047865 49.0218153,154.958548 L49.0218153,77.0414519 C49.0218153,76.9521355 49.0456401,76.8662114 49.0888026,76.7914519 C49.131965,76.7166924 49.194465,76.6530974 49.2718153,76.6084392 L116.75,37.6498911 C116.82735,37.6052329 116.913675,37.5829038 117,37.5829038 Z"
                id="多边形备份" stroke="#FFFFFF" stroke-width="13"></path>
            <g id="编组-8" transform="translate(89, 49)" fill="#FFFFFF">
                <text id="c" font-family="DINCondensed-Bold, DIN Condensed" font-size="140"
                    font-style="condensed" font-weight="bold">
                    <tspan x="2" y="100">c</tspan>
                </text>
                <rect id="矩形备份-2" transform="translate(16.5, 58) rotate(-270) translate(-16.5, -58)"
                    x="11.5" y="41.5" width="10" height="33"></rect>
                <rect id="矩形备份-3" transform="translate(16.5, 72) rotate(-270) translate(-16.5, -72)"
                    x="11.5" y="55.5" width="10" height="33"></rect>
            </g>
        </g>
    </g>
</svg>